<mxfile host="app.diagrams.net" modified="2020-10-18T05:37:20.416Z" agent="5.0 (Windows NT 10.0; Win64; x64) AppleWebKit/537.36 (KHTML, like Gecko) Chrome/86.0.4240.80 Safari/537.36 Edg/86.0.622.43" etag="9LRcZuqLg3-mSDhgLK5R" version="13.6.6" type="github">
  <diagram id="A6khN07LfGxsoJ5MC2mk" name="Page-1">
    <mxGraphModel dx="798" dy="452" grid="1" gridSize="10" guides="1" tooltips="1" connect="1" arrows="1" fold="1" page="1" pageScale="1" pageWidth="827" pageHeight="1169" math="0" shadow="0">
      <root>
        <mxCell id="0" />
        <mxCell id="1" parent="0" />
        <mxCell id="evI74GuZrpOIvEY8f6cM-6" value="&lt;b&gt;Charge Controller&lt;/b&gt;" style="rounded=0;whiteSpace=wrap;html=1;" vertex="1" parent="1">
          <mxGeometry x="270" y="200" width="150" height="40" as="geometry" />
        </mxCell>
        <mxCell id="evI74GuZrpOIvEY8f6cM-16" value="" style="endArrow=none;html=1;entryX=0.124;entryY=1.04;entryDx=0;entryDy=0;entryPerimeter=0;exitX=0;exitY=0.57;exitDx=0;exitDy=0;exitPerimeter=0;" edge="1" parent="1" source="evI74GuZrpOIvEY8f6cM-18" target="evI74GuZrpOIvEY8f6cM-6">
          <mxGeometry width="50" height="50" relative="1" as="geometry">
            <mxPoint x="110" y="320" as="sourcePoint" />
            <mxPoint x="270" y="305.5" as="targetPoint" />
            <Array as="points">
              <mxPoint x="77" y="310" />
              <mxPoint x="289" y="310" />
            </Array>
          </mxGeometry>
        </mxCell>
        <mxCell id="evI74GuZrpOIvEY8f6cM-18" value="" style="verticalLabelPosition=bottom;shadow=0;dashed=0;align=center;html=1;verticalAlign=top;shape=mxgraph.electrical.opto_electronics.solar_cell;pointerEvents=1;direction=north;" vertex="1" parent="1">
          <mxGeometry x="60" y="270" width="30" height="35" as="geometry" />
        </mxCell>
        <mxCell id="evI74GuZrpOIvEY8f6cM-21" value="" style="triangle;whiteSpace=wrap;html=1;" vertex="1" parent="1">
          <mxGeometry x="170" y="250" width="10" height="10" as="geometry" />
        </mxCell>
        <mxCell id="evI74GuZrpOIvEY8f6cM-22" value="" style="endArrow=none;html=1;" edge="1" parent="1">
          <mxGeometry width="50" height="50" relative="1" as="geometry">
            <mxPoint x="180" y="260" as="sourcePoint" />
            <mxPoint x="180" y="250" as="targetPoint" />
            <Array as="points">
              <mxPoint x="180" y="260" />
            </Array>
          </mxGeometry>
        </mxCell>
        <mxCell id="evI74GuZrpOIvEY8f6cM-23" value="" style="endArrow=none;html=1;exitX=1;exitY=0.57;exitDx=0;exitDy=0;exitPerimeter=0;entryX=0;entryY=0.5;entryDx=0;entryDy=0;fillColor=#e51400;strokeColor=#B20000;" edge="1" parent="1" source="evI74GuZrpOIvEY8f6cM-18" target="evI74GuZrpOIvEY8f6cM-21">
          <mxGeometry width="50" height="50" relative="1" as="geometry">
            <mxPoint x="310" y="280" as="sourcePoint" />
            <mxPoint x="360" y="230" as="targetPoint" />
            <Array as="points">
              <mxPoint x="77" y="255" />
            </Array>
          </mxGeometry>
        </mxCell>
        <mxCell id="evI74GuZrpOIvEY8f6cM-29" value="" style="endArrow=none;html=1;" edge="1" parent="1">
          <mxGeometry width="50" height="50" relative="1" as="geometry">
            <mxPoint x="339.76" y="420" as="sourcePoint" />
            <mxPoint x="339.76" y="380" as="targetPoint" />
          </mxGeometry>
        </mxCell>
        <mxCell id="evI74GuZrpOIvEY8f6cM-30" value="" style="endArrow=none;html=1;" edge="1" parent="1">
          <mxGeometry width="50" height="50" relative="1" as="geometry">
            <mxPoint x="349.76" y="410" as="sourcePoint" />
            <mxPoint x="349.76" y="390" as="targetPoint" />
          </mxGeometry>
        </mxCell>
        <mxCell id="evI74GuZrpOIvEY8f6cM-31" value="" style="endArrow=none;html=1;entryX=0.337;entryY=0.988;entryDx=0;entryDy=0;entryPerimeter=0;fillColor=#e51400;strokeColor=#B20000;" edge="1" parent="1" source="evI74GuZrpOIvEY8f6cM-55" target="evI74GuZrpOIvEY8f6cM-6">
          <mxGeometry width="345" height="315" relative="1" as="geometry">
            <mxPoint x="340" y="400" as="sourcePoint" />
            <mxPoint x="326" y="243" as="targetPoint" />
            <Array as="points" />
          </mxGeometry>
        </mxCell>
        <mxCell id="evI74GuZrpOIvEY8f6cM-33" value="" style="endArrow=none;html=1;exitX=1;exitY=0.5;exitDx=0;exitDy=0;entryX=0.19;entryY=1.014;entryDx=0;entryDy=0;fillColor=#e51400;strokeColor=#B20000;entryPerimeter=0;" edge="1" parent="1" target="evI74GuZrpOIvEY8f6cM-6">
          <mxGeometry width="50" height="50" relative="1" as="geometry">
            <mxPoint x="235.0000000000024" y="255.00000000000006" as="sourcePoint" />
            <mxPoint x="340" y="290" as="targetPoint" />
            <Array as="points">
              <mxPoint x="299" y="255" />
            </Array>
          </mxGeometry>
        </mxCell>
        <mxCell id="evI74GuZrpOIvEY8f6cM-34" value="V" style="ellipse;whiteSpace=wrap;html=1;aspect=fixed;" vertex="1" parent="1">
          <mxGeometry x="330" y="350" width="20" height="20" as="geometry" />
        </mxCell>
        <mxCell id="evI74GuZrpOIvEY8f6cM-35" value="" style="endArrow=none;html=1;entryX=1;entryY=0.5;entryDx=0;entryDy=0;" edge="1" parent="1" target="evI74GuZrpOIvEY8f6cM-34">
          <mxGeometry width="50" height="50" relative="1" as="geometry">
            <mxPoint x="360" y="360" as="sourcePoint" />
            <mxPoint x="360" y="360" as="targetPoint" />
            <Array as="points">
              <mxPoint x="370" y="360" />
            </Array>
          </mxGeometry>
        </mxCell>
        <mxCell id="evI74GuZrpOIvEY8f6cM-37" value="" style="endArrow=none;html=1;exitX=1;exitY=0.5;exitDx=0;exitDy=0;fillColor=#e51400;strokeColor=#B20000;" edge="1" parent="1" source="evI74GuZrpOIvEY8f6cM-21" target="evI74GuZrpOIvEY8f6cM-38">
          <mxGeometry width="50" height="50" relative="1" as="geometry">
            <mxPoint x="180" y="254.99999999999994" as="sourcePoint" />
            <mxPoint x="217" y="255" as="targetPoint" />
            <Array as="points" />
          </mxGeometry>
        </mxCell>
        <mxCell id="evI74GuZrpOIvEY8f6cM-38" value="I" style="ellipse;whiteSpace=wrap;html=1;aspect=fixed;" vertex="1" parent="1">
          <mxGeometry x="220" y="245" width="20" height="20" as="geometry" />
        </mxCell>
        <mxCell id="evI74GuZrpOIvEY8f6cM-39" value="V" style="ellipse;whiteSpace=wrap;html=1;aspect=fixed;" vertex="1" parent="1">
          <mxGeometry x="100" y="275" width="20" height="20" as="geometry" />
        </mxCell>
        <mxCell id="evI74GuZrpOIvEY8f6cM-55" value="I" style="ellipse;whiteSpace=wrap;html=1;aspect=fixed;" vertex="1" parent="1">
          <mxGeometry x="310" y="277.5" width="20" height="20" as="geometry" />
        </mxCell>
        <mxCell id="evI74GuZrpOIvEY8f6cM-56" value="" style="endArrow=none;html=1;fillColor=#e51400;strokeColor=#B20000;" edge="1" parent="1">
          <mxGeometry width="345" height="315" relative="1" as="geometry">
            <mxPoint x="340" y="400" as="sourcePoint" />
            <mxPoint x="320" y="320" as="targetPoint" />
            <Array as="points">
              <mxPoint x="320" y="400" />
            </Array>
          </mxGeometry>
        </mxCell>
        <mxCell id="evI74GuZrpOIvEY8f6cM-58" value="" style="endArrow=none;html=1;entryX=0.5;entryY=1;entryDx=0;entryDy=0;" edge="1" parent="1" target="evI74GuZrpOIvEY8f6cM-39">
          <mxGeometry width="50" height="50" relative="1" as="geometry">
            <mxPoint x="110" y="310" as="sourcePoint" />
            <mxPoint x="250" y="250" as="targetPoint" />
          </mxGeometry>
        </mxCell>
        <mxCell id="evI74GuZrpOIvEY8f6cM-60" value="" style="endArrow=none;html=1;exitX=0.5;exitY=0;exitDx=0;exitDy=0;" edge="1" parent="1" source="evI74GuZrpOIvEY8f6cM-39">
          <mxGeometry width="50" height="50" relative="1" as="geometry">
            <mxPoint x="160" y="280" as="sourcePoint" />
            <mxPoint x="110" y="250" as="targetPoint" />
          </mxGeometry>
        </mxCell>
        <mxCell id="evI74GuZrpOIvEY8f6cM-61" value="" style="endArrow=none;html=1;entryX=0;entryY=0.5;entryDx=0;entryDy=0;" edge="1" parent="1" target="evI74GuZrpOIvEY8f6cM-34">
          <mxGeometry width="50" height="50" relative="1" as="geometry">
            <mxPoint x="320" y="360" as="sourcePoint" />
            <mxPoint x="330" y="330" as="targetPoint" />
          </mxGeometry>
        </mxCell>
        <mxCell id="evI74GuZrpOIvEY8f6cM-63" value="" style="endArrow=none;html=1;entryX=0.652;entryY=0.977;entryDx=0;entryDy=0;entryPerimeter=0;" edge="1" parent="1" target="evI74GuZrpOIvEY8f6cM-6">
          <mxGeometry width="50" height="50" relative="1" as="geometry">
            <mxPoint x="350" y="400" as="sourcePoint" />
            <mxPoint x="360" y="277.5" as="targetPoint" />
            <Array as="points">
              <mxPoint x="368" y="400" />
            </Array>
          </mxGeometry>
        </mxCell>
        <mxCell id="evI74GuZrpOIvEY8f6cM-65" value="&lt;font&gt;&lt;font style=&quot;font-size: 8px&quot;&gt;&lt;b&gt;BUS&lt;br&gt;12V(DC)&lt;/b&gt;&lt;/font&gt;&lt;br&gt;&lt;/font&gt;" style="whiteSpace=wrap;html=1;aspect=fixed;" vertex="1" parent="1">
          <mxGeometry x="520" y="200" width="40" height="40" as="geometry" />
        </mxCell>
        <mxCell id="evI74GuZrpOIvEY8f6cM-68" value="" style="endArrow=none;html=1;exitX=1;exitY=0.25;exitDx=0;exitDy=0;fillColor=#e51400;strokeColor=#B20000;" edge="1" parent="1" source="evI74GuZrpOIvEY8f6cM-6">
          <mxGeometry width="50" height="50" relative="1" as="geometry">
            <mxPoint x="480" y="260" as="sourcePoint" />
            <mxPoint x="520" y="210" as="targetPoint" />
          </mxGeometry>
        </mxCell>
        <mxCell id="evI74GuZrpOIvEY8f6cM-69" value="" style="endArrow=none;html=1;exitX=1;exitY=0.75;exitDx=0;exitDy=0;entryX=0;entryY=0.75;entryDx=0;entryDy=0;" edge="1" parent="1" source="evI74GuZrpOIvEY8f6cM-6" target="evI74GuZrpOIvEY8f6cM-65">
          <mxGeometry width="50" height="50" relative="1" as="geometry">
            <mxPoint x="480" y="260" as="sourcePoint" />
            <mxPoint x="530" y="210" as="targetPoint" />
          </mxGeometry>
        </mxCell>
        <mxCell id="evI74GuZrpOIvEY8f6cM-70" value="" style="pointerEvents=1;verticalLabelPosition=bottom;shadow=0;dashed=0;align=center;html=1;verticalAlign=top;shape=mxgraph.electrical.resistors.resistor_1;" vertex="1" parent="1">
          <mxGeometry x="530" y="130" width="20" height="10" as="geometry" />
        </mxCell>
        <mxCell id="evI74GuZrpOIvEY8f6cM-71" value="" style="pointerEvents=1;verticalLabelPosition=bottom;shadow=0;dashed=0;align=center;html=1;verticalAlign=top;shape=mxgraph.electrical.resistors.resistor_1;" vertex="1" parent="1">
          <mxGeometry x="530" y="160" width="20" height="10" as="geometry" />
        </mxCell>
        <mxCell id="evI74GuZrpOIvEY8f6cM-72" value="" style="endArrow=none;html=1;entryX=0;entryY=0.5;entryDx=0;entryDy=0;entryPerimeter=0;exitX=0.25;exitY=0;exitDx=0;exitDy=0;fillColor=#e51400;strokeColor=#B20000;" edge="1" parent="1" source="evI74GuZrpOIvEY8f6cM-65" target="evI74GuZrpOIvEY8f6cM-70">
          <mxGeometry width="50" height="50" relative="1" as="geometry">
            <mxPoint x="470" y="190" as="sourcePoint" />
            <mxPoint x="520" y="140" as="targetPoint" />
          </mxGeometry>
        </mxCell>
        <mxCell id="evI74GuZrpOIvEY8f6cM-73" value="" style="endArrow=none;html=1;entryX=1;entryY=0.5;entryDx=0;entryDy=0;entryPerimeter=0;exitX=0.75;exitY=0;exitDx=0;exitDy=0;" edge="1" parent="1" source="evI74GuZrpOIvEY8f6cM-65" target="evI74GuZrpOIvEY8f6cM-70">
          <mxGeometry width="50" height="50" relative="1" as="geometry">
            <mxPoint x="470" y="190" as="sourcePoint" />
            <mxPoint x="520" y="140" as="targetPoint" />
          </mxGeometry>
        </mxCell>
        <mxCell id="evI74GuZrpOIvEY8f6cM-74" value="" style="pointerEvents=1;verticalLabelPosition=bottom;shadow=0;dashed=0;align=center;html=1;verticalAlign=top;shape=mxgraph.electrical.resistors.resistor_1;direction=south;" vertex="1" parent="1">
          <mxGeometry x="740" y="210" width="10" height="20" as="geometry" />
        </mxCell>
        <mxCell id="evI74GuZrpOIvEY8f6cM-75" value="" style="pointerEvents=1;verticalLabelPosition=bottom;shadow=0;dashed=0;align=center;html=1;verticalAlign=top;shape=mxgraph.electrical.resistors.resistor_1;direction=south;" vertex="1" parent="1">
          <mxGeometry x="780" y="210" width="10" height="20" as="geometry" />
        </mxCell>
        <mxCell id="evI74GuZrpOIvEY8f6cM-78" value="&lt;b&gt;uC&lt;/b&gt;" style="rounded=0;whiteSpace=wrap;html=1;" vertex="1" parent="1">
          <mxGeometry x="530" y="320" width="20" height="40" as="geometry" />
        </mxCell>
        <mxCell id="evI74GuZrpOIvEY8f6cM-79" value="" style="endArrow=none;html=1;exitX=0.25;exitY=0;exitDx=0;exitDy=0;entryX=0.385;entryY=0.988;entryDx=0;entryDy=0;entryPerimeter=0;" edge="1" parent="1" source="evI74GuZrpOIvEY8f6cM-78" target="evI74GuZrpOIvEY8f6cM-65">
          <mxGeometry width="50" height="50" relative="1" as="geometry">
            <mxPoint x="510" y="300" as="sourcePoint" />
            <mxPoint x="537" y="242" as="targetPoint" />
          </mxGeometry>
        </mxCell>
        <mxCell id="evI74GuZrpOIvEY8f6cM-81" value="" style="endArrow=none;html=1;entryX=0.594;entryY=1.006;entryDx=0;entryDy=0;entryPerimeter=0;fillColor=#e51400;strokeColor=#B20000;" edge="1" parent="1" target="evI74GuZrpOIvEY8f6cM-65">
          <mxGeometry width="50" height="50" relative="1" as="geometry">
            <mxPoint x="544" y="320" as="sourcePoint" />
            <mxPoint x="590" y="250" as="targetPoint" />
          </mxGeometry>
        </mxCell>
        <mxCell id="evI74GuZrpOIvEY8f6cM-82" value="&lt;font style=&quot;font-size: 8px&quot;&gt;&lt;b&gt;BC(12V/5V)&lt;/b&gt;&lt;/font&gt;" style="rounded=0;whiteSpace=wrap;html=1;" vertex="1" parent="1">
          <mxGeometry x="650" y="205" width="50" height="30" as="geometry" />
        </mxCell>
        <mxCell id="evI74GuZrpOIvEY8f6cM-86" value="" style="endArrow=none;html=1;exitX=1;exitY=0.25;exitDx=0;exitDy=0;entryX=-0.016;entryY=0.145;entryDx=0;entryDy=0;entryPerimeter=0;fillColor=#e51400;strokeColor=#B20000;" edge="1" parent="1" source="evI74GuZrpOIvEY8f6cM-65" target="evI74GuZrpOIvEY8f6cM-82">
          <mxGeometry width="50" height="50" relative="1" as="geometry">
            <mxPoint x="610" y="240" as="sourcePoint" />
            <mxPoint x="660" y="190" as="targetPoint" />
          </mxGeometry>
        </mxCell>
        <mxCell id="evI74GuZrpOIvEY8f6cM-87" value="" style="endArrow=none;html=1;" edge="1" parent="1">
          <mxGeometry width="50" height="50" relative="1" as="geometry">
            <mxPoint x="560" y="233" as="sourcePoint" />
            <mxPoint x="651" y="233" as="targetPoint" />
          </mxGeometry>
        </mxCell>
        <mxCell id="evI74GuZrpOIvEY8f6cM-88" value="" style="endArrow=none;html=1;entryX=0;entryY=0.5;entryDx=0;entryDy=0;entryPerimeter=0;fillColor=#e51400;strokeColor=#B20000;" edge="1" parent="1" target="evI74GuZrpOIvEY8f6cM-75">
          <mxGeometry width="50" height="50" relative="1" as="geometry">
            <mxPoint x="700" y="210" as="sourcePoint" />
            <mxPoint x="660" y="190" as="targetPoint" />
          </mxGeometry>
        </mxCell>
        <mxCell id="evI74GuZrpOIvEY8f6cM-89" value="" style="endArrow=none;html=1;entryX=1;entryY=0.5;entryDx=0;entryDy=0;entryPerimeter=0;" edge="1" parent="1" target="evI74GuZrpOIvEY8f6cM-75">
          <mxGeometry width="50" height="50" relative="1" as="geometry">
            <mxPoint x="700" y="230" as="sourcePoint" />
            <mxPoint x="660" y="190" as="targetPoint" />
          </mxGeometry>
        </mxCell>
        <mxCell id="evI74GuZrpOIvEY8f6cM-90" value="&lt;font style=&quot;font-size: 8px&quot;&gt;&lt;b&gt;RELE&lt;/b&gt;&lt;/font&gt;" style="rounded=0;whiteSpace=wrap;html=1;" vertex="1" parent="1">
          <mxGeometry x="660" y="310" width="30" height="60" as="geometry" />
        </mxCell>
        <mxCell id="evI74GuZrpOIvEY8f6cM-91" value="" style="endArrow=none;html=1;entryX=0.334;entryY=1.045;entryDx=0;entryDy=0;exitX=0.25;exitY=0;exitDx=0;exitDy=0;entryPerimeter=0;" edge="1" parent="1" source="evI74GuZrpOIvEY8f6cM-90" target="evI74GuZrpOIvEY8f6cM-82">
          <mxGeometry width="50" height="50" relative="1" as="geometry">
            <mxPoint x="667" y="310" as="sourcePoint" />
            <mxPoint x="667" y="234" as="targetPoint" />
          </mxGeometry>
        </mxCell>
        <mxCell id="evI74GuZrpOIvEY8f6cM-92" value="" style="endArrow=none;html=1;entryX=0.646;entryY=0.981;entryDx=0;entryDy=0;entryPerimeter=0;exitX=0.75;exitY=0;exitDx=0;exitDy=0;fillColor=#e51400;strokeColor=#B20000;" edge="1" parent="1" source="evI74GuZrpOIvEY8f6cM-90" target="evI74GuZrpOIvEY8f6cM-82">
          <mxGeometry width="50" height="50" relative="1" as="geometry">
            <mxPoint x="682" y="297" as="sourcePoint" />
            <mxPoint x="682" y="237" as="targetPoint" />
          </mxGeometry>
        </mxCell>
        <mxCell id="evI74GuZrpOIvEY8f6cM-93" value="" style="endArrow=none;html=1;exitX=1;exitY=0.5;exitDx=0;exitDy=0;entryX=0;entryY=0.5;entryDx=0;entryDy=0;fillColor=#e51400;strokeColor=#B20000;" edge="1" parent="1" source="evI74GuZrpOIvEY8f6cM-78" target="evI74GuZrpOIvEY8f6cM-90">
          <mxGeometry width="50" height="50" relative="1" as="geometry">
            <mxPoint x="610" y="340" as="sourcePoint" />
            <mxPoint x="660" y="290" as="targetPoint" />
          </mxGeometry>
        </mxCell>
        <mxCell id="evI74GuZrpOIvEY8f6cM-94" value="" style="endArrow=none;html=1;exitX=1;exitY=0.75;exitDx=0;exitDy=0;entryX=-0.032;entryY=0.668;entryDx=0;entryDy=0;entryPerimeter=0;" edge="1" parent="1" source="evI74GuZrpOIvEY8f6cM-78" target="evI74GuZrpOIvEY8f6cM-90">
          <mxGeometry width="50" height="50" relative="1" as="geometry">
            <mxPoint x="610" y="340" as="sourcePoint" />
            <mxPoint x="660" y="290" as="targetPoint" />
          </mxGeometry>
        </mxCell>
        <mxCell id="evI74GuZrpOIvEY8f6cM-95" value="" style="pointerEvents=1;verticalLabelPosition=bottom;shadow=0;dashed=0;align=center;html=1;verticalAlign=top;shape=mxgraph.electrical.resistors.resistor_1;direction=west;" vertex="1" parent="1">
          <mxGeometry x="665" y="400" width="20" height="10" as="geometry" />
        </mxCell>
        <mxCell id="evI74GuZrpOIvEY8f6cM-98" value="&lt;font style=&quot;font-size: 8px&quot;&gt;&lt;b&gt;2.25A&lt;/b&gt;&lt;/font&gt;" style="ellipse;whiteSpace=wrap;html=1;" vertex="1" parent="1">
          <mxGeometry x="490" y="170" width="30" height="20" as="geometry" />
        </mxCell>
        <mxCell id="evI74GuZrpOIvEY8f6cM-99" value="&lt;font style=&quot;font-size: 8px&quot;&gt;&lt;b&gt;2.35A&lt;/b&gt;&lt;/font&gt;" style="ellipse;whiteSpace=wrap;html=1;" vertex="1" parent="1">
          <mxGeometry x="590" y="180" width="30" height="20" as="geometry" />
        </mxCell>
        <mxCell id="evI74GuZrpOIvEY8f6cM-100" value="&lt;font style=&quot;font-size: 8px&quot;&gt;&lt;b&gt;0.5A&lt;/b&gt;&lt;/font&gt;" style="ellipse;whiteSpace=wrap;html=1;" vertex="1" parent="1">
          <mxGeometry x="560" y="270" width="30" height="20" as="geometry" />
        </mxCell>
        <mxCell id="evI74GuZrpOIvEY8f6cM-101" value="&lt;span style=&quot;font-size: 8px&quot;&gt;&lt;b&gt;5.1A&lt;/b&gt;&lt;/span&gt;" style="ellipse;whiteSpace=wrap;html=1;" vertex="1" parent="1">
          <mxGeometry x="430" y="180" width="30" height="20" as="geometry" />
        </mxCell>
        <mxCell id="evI74GuZrpOIvEY8f6cM-102" value="&lt;font style=&quot;font-size: 8px&quot;&gt;&lt;b&gt;2A&lt;/b&gt;&lt;/font&gt;" style="ellipse;whiteSpace=wrap;html=1;" vertex="1" parent="1">
          <mxGeometry x="700" y="180" width="30" height="20" as="geometry" />
        </mxCell>
        <mxCell id="evI74GuZrpOIvEY8f6cM-107" value="" style="endArrow=none;dashed=1;html=1;exitX=1;exitY=0.5;exitDx=0;exitDy=0;entryX=0.45;entryY=-0.025;entryDx=0;entryDy=0;entryPerimeter=0;" edge="1" parent="1" source="evI74GuZrpOIvEY8f6cM-39" target="evI74GuZrpOIvEY8f6cM-6">
          <mxGeometry width="50" height="50" relative="1" as="geometry">
            <mxPoint x="350" y="290" as="sourcePoint" />
            <mxPoint x="400" y="240" as="targetPoint" />
            <Array as="points">
              <mxPoint x="140" y="285" />
              <mxPoint x="140" y="160" />
              <mxPoint x="338" y="160" />
            </Array>
          </mxGeometry>
        </mxCell>
        <mxCell id="evI74GuZrpOIvEY8f6cM-109" value="" style="endArrow=none;dashed=1;html=1;entryX=0.152;entryY=-0.025;entryDx=0;entryDy=0;entryPerimeter=0;" edge="1" parent="1" target="evI74GuZrpOIvEY8f6cM-6">
          <mxGeometry width="50" height="50" relative="1" as="geometry">
            <mxPoint x="230" y="245" as="sourcePoint" />
            <mxPoint x="280" y="195" as="targetPoint" />
            <Array as="points">
              <mxPoint x="230" y="190" />
              <mxPoint x="293" y="190" />
            </Array>
          </mxGeometry>
        </mxCell>
        <mxCell id="evI74GuZrpOIvEY8f6cM-110" value="" style="endArrow=none;dashed=1;html=1;exitX=0;exitY=0.5;exitDx=0;exitDy=0;entryX=0.197;entryY=0.027;entryDx=0;entryDy=0;entryPerimeter=0;" edge="1" parent="1" source="evI74GuZrpOIvEY8f6cM-55" target="evI74GuZrpOIvEY8f6cM-6">
          <mxGeometry width="50" height="50" relative="1" as="geometry">
            <mxPoint x="350" y="290" as="sourcePoint" />
            <mxPoint x="400" y="240" as="targetPoint" />
            <Array as="points">
              <mxPoint x="210" y="288" />
              <mxPoint x="210" y="180" />
              <mxPoint x="300" y="180" />
            </Array>
          </mxGeometry>
        </mxCell>
        <mxCell id="evI74GuZrpOIvEY8f6cM-111" value="" style="endArrow=none;dashed=1;html=1;exitX=0.5;exitY=0;exitDx=0;exitDy=0;entryX=0.25;entryY=0;entryDx=0;entryDy=0;" edge="1" parent="1" source="evI74GuZrpOIvEY8f6cM-34" target="evI74GuZrpOIvEY8f6cM-6">
          <mxGeometry width="50" height="50" relative="1" as="geometry">
            <mxPoint x="350" y="290" as="sourcePoint" />
            <mxPoint x="400" y="240" as="targetPoint" />
            <Array as="points">
              <mxPoint x="340" y="330" />
              <mxPoint x="190" y="330" />
              <mxPoint x="190" y="170" />
              <mxPoint x="308" y="170" />
            </Array>
          </mxGeometry>
        </mxCell>
        <mxCell id="evI74GuZrpOIvEY8f6cM-114" value="" style="endArrow=none;html=1;entryX=1;entryY=0.5;entryDx=0;entryDy=0;" edge="1" parent="1" target="evI74GuZrpOIvEY8f6cM-98">
          <mxGeometry width="50" height="50" relative="1" as="geometry">
            <mxPoint x="530" y="180" as="sourcePoint" />
            <mxPoint x="470" y="240" as="targetPoint" />
          </mxGeometry>
        </mxCell>
        <mxCell id="evI74GuZrpOIvEY8f6cM-116" value="" style="endArrow=none;html=1;entryX=0;entryY=0.5;entryDx=0;entryDy=0;" edge="1" parent="1" target="evI74GuZrpOIvEY8f6cM-100">
          <mxGeometry width="50" height="50" relative="1" as="geometry">
            <mxPoint x="540" y="280" as="sourcePoint" />
            <mxPoint x="470" y="240" as="targetPoint" />
            <Array as="points">
              <mxPoint x="560" y="280" />
            </Array>
          </mxGeometry>
        </mxCell>
        <mxCell id="evI74GuZrpOIvEY8f6cM-117" value="" style="endArrow=none;html=1;entryX=0.5;entryY=1;entryDx=0;entryDy=0;" edge="1" parent="1" target="evI74GuZrpOIvEY8f6cM-99">
          <mxGeometry width="50" height="50" relative="1" as="geometry">
            <mxPoint x="605" y="210" as="sourcePoint" />
            <mxPoint x="470" y="240" as="targetPoint" />
          </mxGeometry>
        </mxCell>
        <mxCell id="evI74GuZrpOIvEY8f6cM-118" value="" style="endArrow=none;html=1;entryX=0.5;entryY=1;entryDx=0;entryDy=0;" edge="1" parent="1" target="evI74GuZrpOIvEY8f6cM-102">
          <mxGeometry width="50" height="50" relative="1" as="geometry">
            <mxPoint x="715" y="210" as="sourcePoint" />
            <mxPoint x="640" y="250" as="targetPoint" />
          </mxGeometry>
        </mxCell>
        <mxCell id="evI74GuZrpOIvEY8f6cM-119" value="" style="endArrow=none;dashed=1;html=1;entryX=0.883;entryY=1.079;entryDx=0;entryDy=0;entryPerimeter=0;exitX=0;exitY=0.5;exitDx=0;exitDy=0;" edge="1" parent="1" source="evI74GuZrpOIvEY8f6cM-78" target="evI74GuZrpOIvEY8f6cM-6">
          <mxGeometry width="50" height="50" relative="1" as="geometry">
            <mxPoint x="440" y="290" as="sourcePoint" />
            <mxPoint x="490" y="240" as="targetPoint" />
            <Array as="points">
              <mxPoint x="402" y="340" />
            </Array>
          </mxGeometry>
        </mxCell>
        <mxCell id="evI74GuZrpOIvEY8f6cM-120" value="" style="endArrow=none;dashed=1;html=1;entryX=0.813;entryY=1.079;entryDx=0;entryDy=0;entryPerimeter=0;exitX=0;exitY=0.75;exitDx=0;exitDy=0;" edge="1" parent="1" source="evI74GuZrpOIvEY8f6cM-78" target="evI74GuZrpOIvEY8f6cM-6">
          <mxGeometry width="50" height="50" relative="1" as="geometry">
            <mxPoint x="440" y="290" as="sourcePoint" />
            <mxPoint x="490" y="240" as="targetPoint" />
            <Array as="points">
              <mxPoint x="392" y="350" />
            </Array>
          </mxGeometry>
        </mxCell>
        <mxCell id="evI74GuZrpOIvEY8f6cM-122" value="C°" style="ellipse;whiteSpace=wrap;html=1;aspect=fixed;" vertex="1" parent="1">
          <mxGeometry x="335" y="255" width="20" height="20" as="geometry" />
        </mxCell>
        <mxCell id="evI74GuZrpOIvEY8f6cM-123" value="" style="endArrow=none;dashed=1;html=1;exitX=1;exitY=0.5;exitDx=0;exitDy=0;entryX=0;entryY=0.25;entryDx=0;entryDy=0;" edge="1" parent="1" source="evI74GuZrpOIvEY8f6cM-122" target="evI74GuZrpOIvEY8f6cM-78">
          <mxGeometry width="50" height="50" relative="1" as="geometry">
            <mxPoint x="390" y="290" as="sourcePoint" />
            <mxPoint x="440" y="240" as="targetPoint" />
            <Array as="points">
              <mxPoint x="380" y="265" />
              <mxPoint x="380" y="330" />
            </Array>
          </mxGeometry>
        </mxCell>
        <mxCell id="evI74GuZrpOIvEY8f6cM-126" value="" style="endArrow=none;html=1;exitX=0;exitY=0.5;exitDx=0;exitDy=0;exitPerimeter=0;fillColor=#e51400;strokeColor=#B20000;" edge="1" parent="1" source="evI74GuZrpOIvEY8f6cM-95">
          <mxGeometry width="50" height="50" relative="1" as="geometry">
            <mxPoint x="630" y="330" as="sourcePoint" />
            <mxPoint x="685" y="370" as="targetPoint" />
          </mxGeometry>
        </mxCell>
        <mxCell id="evI74GuZrpOIvEY8f6cM-127" value="" style="endArrow=none;html=1;exitX=1;exitY=0.5;exitDx=0;exitDy=0;exitPerimeter=0;" edge="1" parent="1" source="evI74GuZrpOIvEY8f6cM-95">
          <mxGeometry width="50" height="50" relative="1" as="geometry">
            <mxPoint x="660" y="400" as="sourcePoint" />
            <mxPoint x="665" y="369" as="targetPoint" />
          </mxGeometry>
        </mxCell>
        <mxCell id="evI74GuZrpOIvEY8f6cM-132" value="" style="endArrow=none;html=1;entryX=0.5;entryY=1;entryDx=0;entryDy=0;fillColor=#e51400;strokeColor=#B20000;" edge="1" parent="1" target="evI74GuZrpOIvEY8f6cM-55">
          <mxGeometry width="50" height="50" relative="1" as="geometry">
            <mxPoint x="320" y="310" as="sourcePoint" />
            <mxPoint x="310" y="300" as="targetPoint" />
          </mxGeometry>
        </mxCell>
        <mxCell id="evI74GuZrpOIvEY8f6cM-134" value="" style="triangle;whiteSpace=wrap;html=1;direction=north;" vertex="1" parent="1">
          <mxGeometry x="315" y="310" width="10" height="10" as="geometry" />
        </mxCell>
        <mxCell id="evI74GuZrpOIvEY8f6cM-135" value="" style="endArrow=none;html=1;" edge="1" parent="1">
          <mxGeometry width="50" height="50" relative="1" as="geometry">
            <mxPoint x="315" y="310" as="sourcePoint" />
            <mxPoint x="325" y="310" as="targetPoint" />
            <Array as="points">
              <mxPoint x="315" y="310" />
            </Array>
          </mxGeometry>
        </mxCell>
        <mxCell id="evI74GuZrpOIvEY8f6cM-136" value="&lt;b&gt;&lt;font style=&quot;font-size: 10px&quot;&gt;12Vdc&lt;/font&gt;&lt;/b&gt;" style="text;html=1;strokeColor=none;fillColor=none;align=center;verticalAlign=middle;whiteSpace=wrap;rounded=0;" vertex="1" parent="1">
          <mxGeometry x="320" y="420" width="40" height="20" as="geometry" />
        </mxCell>
        <mxCell id="evI74GuZrpOIvEY8f6cM-137" value="" style="endArrow=none;html=1;entryX=0.5;entryY=1;entryDx=0;entryDy=0;" edge="1" parent="1" target="evI74GuZrpOIvEY8f6cM-101">
          <mxGeometry width="50" height="50" relative="1" as="geometry">
            <mxPoint x="445" y="210" as="sourcePoint" />
            <mxPoint x="530" y="260" as="targetPoint" />
          </mxGeometry>
        </mxCell>
        <mxCell id="evI74GuZrpOIvEY8f6cM-140" value="" style="endArrow=none;html=1;exitX=1;exitY=0;exitDx=0;exitDy=0;fillColor=#e51400;strokeColor=#B20000;" edge="1" parent="1" source="evI74GuZrpOIvEY8f6cM-122">
          <mxGeometry width="50" height="50" relative="1" as="geometry">
            <mxPoint x="480" y="250" as="sourcePoint" />
            <mxPoint x="720" y="210" as="targetPoint" />
            <Array as="points">
              <mxPoint x="720" y="258" />
            </Array>
          </mxGeometry>
        </mxCell>
        <mxCell id="evI74GuZrpOIvEY8f6cM-142" value="" style="endArrow=none;html=1;exitX=0.5;exitY=0;exitDx=0;exitDy=0;" edge="1" parent="1" source="evI74GuZrpOIvEY8f6cM-122">
          <mxGeometry width="50" height="50" relative="1" as="geometry">
            <mxPoint x="480" y="250" as="sourcePoint" />
            <mxPoint x="710" y="230" as="targetPoint" />
            <Array as="points">
              <mxPoint x="345" y="250" />
              <mxPoint x="710" y="250" />
            </Array>
          </mxGeometry>
        </mxCell>
      </root>
    </mxGraphModel>
  </diagram>
</mxfile>
